<?xml version="1.0" standalone="no"?>
<!DOCTYPE svg PUBLIC "-//W3C//DTD SVG 20010904//EN"
 "http://www.w3.org/TR/2001/REC-SVG-20010904/DTD/svg10.dtd">
<svg version="1.0" xmlns="http://www.w3.org/2000/svg"
 width="48.000000pt" height="48.000000pt" viewBox="0 0 48.000000 48.000000"
 preserveAspectRatio="xMidYMid meet">

<g transform="translate(0.000000,48.000000) scale(0.100000,-0.100000)"
fill="#000000" stroke="none">
<path d="M237 291 c-5 -46 1 -131 10 -131 33 0 73 61 73 112 0 29 -5 35 -39
49 l-39 16 -5 -46z m52 -17 c-13 -14 -25 -20 -27 -14 -5 15 17 40 36 40 12 0
10 -6 -9 -26z m21 -23 c0 -17 -48 -66 -56 -58 -4 4 5 21 21 37 31 33 35 35 35
21z"/>
<path d="M331 264 c0 -11 3 -14 6 -6 3 7 2 16 -1 19 -3 4 -6 -2 -5 -13z"/>
</g>
</svg>
